<svg width="500" height="500" viewBox="0 0 500 500" fill="none" xmlns="http://www.w3.org/2000/svg">
<rect x="37.2929" y="250.132" width="301" height="301" rx="10.5" transform="rotate(-45 37.2929 250.132)" fill="#2D6423" stroke="#F0F0F0"/>
<path d="M114.303 287V213.5H125.103V243.9H133.503V213.5H144.303V287H133.503V255H125.103V287H114.303ZM150.041 287L161.141 213.5H174.341L185.441 287H174.941L172.941 272H162.541L160.541 287H150.041ZM164.041 260.6H171.441L168.341 235.9L168.041 232H167.441L167.141 235.9L164.041 260.6ZM191.158 287V213.5H201.258L211.258 251.8L212.158 255.2H212.758V213.5H222.658V287H213.558L202.558 248.7L201.658 245.3H201.058V287H191.158ZM242.811 287.8C239.845 287.8 237.428 287.1 235.561 285.7C233.695 284.3 232.311 282.4 231.411 280C230.545 277.6 230.111 274.9 230.111 271.9V228.6C230.111 225.633 230.695 222.95 231.861 220.55C233.028 218.15 234.695 216.25 236.861 214.85C239.028 213.417 241.578 212.7 244.511 212.7C246.745 212.7 248.745 213.117 250.511 213.95C252.311 214.75 253.828 215.883 255.061 217.35C256.328 218.817 257.278 220.517 257.911 222.45C258.578 224.35 258.911 226.4 258.911 228.6V239.9H248.111V228.6C248.111 227.133 247.845 225.867 247.311 224.8C246.778 223.733 245.845 223.2 244.511 223.2C243.211 223.2 242.278 223.767 241.711 224.9C241.178 226 240.911 227.233 240.911 228.6V272.8C240.911 274.233 241.195 275.5 241.761 276.6C242.328 277.667 243.245 278.2 244.511 278.2C245.845 278.2 246.778 277.667 247.311 276.6C247.845 275.5 248.111 274.233 248.111 272.8V260.5H243.811V250.4H258.911V287H252.511L251.211 283C250.278 284.5 249.078 285.683 247.611 286.55C246.178 287.383 244.578 287.8 242.811 287.8ZM266.939 287V213.5H280.639L286.539 251.6L287.039 255.5H287.239L287.739 251.6L293.639 213.5H307.339V287H297.339V237.7H296.739L296.339 240.8L289.939 287H284.339L277.939 240.8L277.539 237.7H276.939V287H266.939ZM313.127 287L324.227 213.5H337.427L348.527 287H338.027L336.027 272H325.627L323.627 287H313.127ZM327.127 260.6H334.527L331.427 235.9L331.127 232H330.527L330.227 235.9L327.127 260.6ZM354.244 287V213.5H364.344L374.344 251.8L375.244 255.2H375.844V213.5H385.744V287H376.644L365.644 248.7L364.744 245.3H364.144V287H354.244Z" fill="#F0F0F0"/>
</svg>